<svg width="110" height="94" viewBox="0 0 110 94" fill="none" xmlns="http://www.w3.org/2000/svg">
<g clip-path="url(#clip0_470_6337)">
<g clip-path="url(#clip1_470_6337)">
<path d="M46.1825 64.2104C45.3744 63.6945 45.0986 63.0298 45.4979 62.0498C45.0061 61.9979 44.6759 62.554 44.5065 63.022L43.0986 66.898C45.0333 69.1333 47.5826 71.5235 49.9027 73.386L52.2392 75.2619C53.2439 73.4977 54.0706 72.0576 55.0885 70.4704C55.3472 70.0669 55.9292 69.8585 56.3379 70.0763C56.6976 70.2674 56.9144 70.9635 56.6541 71.4197L53.8134 76.4047C53.5609 76.8475 53.1677 77.1857 52.7279 77.3076C52.3184 77.4217 51.6914 77.284 51.3006 76.9734C49.4272 75.4837 47.5399 74.1269 45.8491 72.4469L42.0224 68.6425L40.003 70.4546C38.5142 71.7909 37.2392 73.3066 36.0146 74.9056C34.5671 76.7964 33.6036 78.8948 32.8748 81.1695C32.1926 83.2986 31.6355 85.3569 31.2866 87.5718L30.0294 95.5527C29.9416 96.1095 29.55 96.4532 29.055 96.4438C28.7163 96.4375 28.1382 95.9412 28.2073 95.4481L29.1289 88.8412C29.6494 85.11 30.501 81.499 31.9781 78.0517L32.6401 76.5054C29.6852 77.0795 24.1436 75.722 23.9307 72.0497C23.9463 71.7272 24.1226 71.19 24.2198 70.7811C22.6829 70.0677 21.3013 69.1608 20.3231 67.7844C19.1592 66.1468 18.4249 63.9737 20.2058 62.4486C18.4575 60.6947 17.2213 58.516 17.0193 56.0188C16.9059 54.6124 17.2967 52.9568 18.4334 52.1215C19.6285 51.2438 21.1871 51.9217 22.1731 52.8829C24.1304 54.7902 26.0597 56.6079 28.4738 57.9198C31.1188 59.3576 33.9113 59.7964 36.3208 62.1096C38.0372 63.7574 39.0566 65.7858 39.7209 68.1202L41.0294 67.0804C41.6642 65.1944 42.2811 63.4231 43.069 61.6149C43.5212 60.5775 44.5158 60.1913 45.6184 59.9301C45.536 58.8888 45.3798 57.2174 44.083 57.2882C40.1731 57.5006 37.4389 54.6769 36.7442 50.9787C34.7761 48.7717 33.3829 45.3063 32.4334 42.4457C30.7069 37.2491 30.8484 33.1199 33.2734 28.2434C33.9797 26.8221 36.0706 24.2022 37.8289 23.8978C38.8748 19.8645 42.4101 17.652 46.2089 16.5257C52.1421 14.7671 57.4296 14.594 63.3161 16.735C65.4412 17.5081 67.2547 18.6848 68.9828 20.1217C72.923 23.4008 75.1351 27.9823 74.9261 33.1466C74.8227 35.6871 73.9999 39.0691 72.6564 41.2541C73.1164 44.2775 73.3153 47.2207 73.0403 50.2575C72.5508 55.6672 69.6976 58.8062 64.6285 60.3022C63.1156 60.7489 61.6494 60.9306 60.0581 61.1807C59.8841 61.2083 59.5741 61.5756 59.7132 61.6849C60.8181 62.5619 61.8196 63.4357 62.658 64.5518C63.745 65.999 63.3728 66.9058 64.6386 67.3628C66.9929 59.5526 71.7776 59.8932 75.8468 56.703C77.3386 55.5335 78.6121 54.2121 79.8724 52.8019C80.5632 52.0295 81.2244 51.1667 82.1708 50.7687C83.3045 50.2913 84.5228 50.7066 85.1374 51.7526C86.9758 54.8822 85.6339 58.6418 83.3635 61.2554C84.5096 61.9869 84.968 63.3445 84.6207 64.665C83.9867 67.0789 82.3013 68.8509 80.0581 69.9064C80.623 70.8306 80.6502 71.6557 80.2951 72.5641C79.09 75.3004 75.2182 76.5282 72.2594 76.304C73.6968 79.7176 74.557 83.0776 75.4055 86.5855L77.0208 93.2615C77.1413 93.7594 76.724 94.2958 76.3029 94.3745C75.8818 94.4531 75.3783 94.1322 75.2524 93.6375L73.341 86.1498C72.5632 83.1035 71.801 80.1816 70.5267 77.3226C69.097 74.1151 67.1087 72.0615 64.421 69.724L64.9144 73.961C64.9633 74.3786 64.5399 74.9496 64.2306 75.0873C63.825 75.2682 63.2423 75.1691 62.9338 74.8033L59.5088 70.7346C59.1009 70.2501 58.8212 69.8647 59.2353 69.3456C59.564 68.9335 60.2897 68.9154 60.7077 69.3598L62.672 71.4496C62.1296 68.0282 62.2306 66.3726 59.557 64.0995L59.5034 65.9305C59.4676 67.1654 59.2042 68.265 58.5888 69.381C59.7419 74.4573 60.3511 79.4407 60.8942 84.605L61.9867 94.9903C62.0442 95.533 61.6533 95.9499 61.2034 96.0073C60.6891 96.0726 60.2967 95.7076 60.233 95.1287L59.1553 85.3852C58.5756 80.1423 57.9874 75.0786 56.9299 69.9332C53.2679 67.5626 49.8631 66.5621 46.1832 64.212L46.1825 64.2104ZM44.3713 55.3856C45.3721 55.1709 46.1164 55.7513 46.6207 56.5756C47.7505 58.4216 47.8717 60.5523 47.4575 62.7679C49.7722 64.0838 52.1063 65.1063 54.4156 66.3089L57.271 67.7962C57.5616 66.9947 57.6215 66.2766 57.6059 65.4382C57.5826 64.1428 57.6844 61.1626 58.0084 60.0285C58.177 59.4386 58.8981 59.3206 59.4288 59.2679C61.8515 59.0264 64.2089 58.6395 66.3635 57.5383C69.766 55.7993 70.8064 53.4177 71.1825 49.6573C71.5003 46.4798 71.0605 43.4068 70.5554 40.2599C70.2905 38.6074 70.1685 37.0076 69.7038 35.4149L68.5422 31.4398C67.1071 32.0211 65.9649 32.6251 64.5593 32.8957C61.1708 33.5477 57.7893 33.9111 54.3215 33.8183C52.2679 33.7632 50.3223 33.3511 48.3037 33.0522C48.0978 35.8703 48.0496 37.036 46.5445 39.3759C46.1988 39.9131 45.6456 40.4849 45.3899 41.0653L46.2462 48.1645C46.3177 48.7583 46.1195 49.4127 45.7341 49.8437C45.3651 50.2575 44.5376 50.3668 44.1933 49.9067L42.9144 48.1991C42.4754 47.6132 41.7473 46.9965 40.9556 47.0634C39.6518 47.1727 38.8103 48.3682 38.7101 49.6778C38.5795 51.3838 39.3363 53.1479 40.6285 54.275C41.6642 55.1787 43.0457 55.3809 44.3697 55.3872L44.3713 55.3856ZM75.3814 71.1405C74.9867 71.0689 74.6215 70.5223 74.686 70.2667C74.7466 70.0268 75.1094 69.6791 75.3759 69.6335C76.6945 69.4101 77.7878 68.9469 78.9742 68.4168C80.2306 67.856 81.2252 67.0844 82.0294 65.94C82.6207 65.0992 83.0768 64.0657 82.63 63.0039C81.1358 62.6767 80.8196 64.3473 78.0193 65.0842C77.7574 65.1535 77.2291 64.7814 77.1599 64.5274C77.0908 64.2733 77.3674 63.7432 77.6603 63.5851C80.24 62.1867 82.3542 60.1716 83.5546 57.4573C84.8359 54.5598 83.7318 52.2733 83.1024 52.4526C82.3425 52.6697 81.8693 53.2761 81.3899 53.8417C80.2042 55.2417 78.9944 56.5206 77.5826 57.698C72.7637 61.7163 67.7085 60.9817 66.278 68.8344C68.177 70.4908 69.7341 72.1795 71.1366 74.2866C73.3728 74.9048 77.78 74.1482 78.6619 71.6887C78.7357 71.4826 78.6533 71.0327 78.508 70.9289C77.9781 70.5514 76.846 71.4063 75.3814 71.1405ZM25.7435 71.9813C25.7132 72.2015 25.8522 72.6231 26.0247 72.8126C28.0092 74.9945 31.3153 74.9921 33.9641 74.4187C35.2796 72.6742 36.5469 71.1381 38.1296 69.6288C37.4171 65.7087 35.233 62.668 31.4777 61.2122C29.4909 60.4422 27.5453 59.6973 25.8056 58.4381C24.4746 57.4746 23.2524 56.4482 22.0589 55.3274C21.4599 54.7642 19.6782 52.6123 19.1234 54.0831C18.3938 56.0164 19.2353 58.3083 20.4622 59.9152C21.9556 61.8705 23.9229 63.2383 26.1421 64.2317C26.5725 64.4244 26.9082 64.9199 26.7139 65.2408C25.665 66.9766 22.1079 63.228 21.1599 64.0492C20.9968 64.1908 20.8631 64.7185 20.9331 64.9474C21.9937 68.4262 25.7738 69.6776 29.0177 70.1448C29.2959 70.1849 29.7108 70.6009 29.7062 70.8503C29.7015 71.0721 29.3759 71.5306 29.1607 71.5927C27.5997 72.0434 25.8701 71.0524 25.7435 71.9813Z" fill="#333232"/>
<path d="M51.5074 13.3277C46.8757 14.2739 42.4359 14.6743 37.8167 14.2574C36.3738 14.1268 34.878 13.7721 33.8244 12.7795C32.9029 11.9112 33.251 10.4443 34.1228 9.61849C37.4631 6.45665 45.1818 4.6445 49.7009 3.85719C53.7553 3.15089 61.5937 2.10717 65.0536 4.42349C66.1041 5.12664 66.202 6.40789 65.4313 7.40284C64.5937 8.48353 63.394 9.22522 62.1368 9.88197C58.8073 11.621 55.2821 12.5569 51.5074 13.3285V13.3277ZM52.9519 11.7586C56.1554 11.0161 59.1834 10.0487 62.0824 8.53859C62.9363 8.09341 64.9013 6.75082 64.7483 5.82193C64.6045 4.94967 61.9379 4.43922 61.0839 4.37708C54.9278 3.93112 48.9021 4.86473 42.9969 6.64778C41.1492 7.20543 39.4538 7.8024 37.7312 8.60701C36.8221 9.03174 34.2743 10.6127 34.4678 11.5848C34.6698 12.5963 36.8361 12.9557 37.7801 13.0281C43.035 13.4308 47.8003 12.9526 52.9519 11.7586Z" fill="#333232"/>
<path d="M71.1391 94.4314C71.2168 95.0464 70.7428 95.4853 70.3737 95.597C70.0614 95.6922 69.3636 95.3485 69.3085 94.8718L67.9526 83.2077C67.8912 82.6831 68.1577 82.1734 68.5967 82.0224C68.9386 81.9044 69.6006 82.2662 69.6682 82.7979L71.1391 94.4314Z" fill="#333232"/>
<path d="M44.8867 95.6844C44.9582 96.3781 44.6575 96.8736 44.1097 96.9884C43.7189 97.0702 43.14 96.6683 43.0833 96.1186L42.0111 85.7136C41.9722 85.3345 42.2076 84.7643 42.4633 84.6479C42.8052 84.4921 43.3988 84.7438 43.5083 85.1851C43.9124 86.81 44.1315 88.3839 44.304 90.0497L44.8875 95.6852L44.8867 95.6844Z" fill="#333232"/>
<path d="M66.7026 47.4967C66.5876 48.6545 64.9528 49.876 64.6366 49.257C64.2675 48.5357 65.3475 48.2518 65.6754 47.4031C65.1945 46.7716 63.3343 43.1897 64.5115 43.141C65.1237 43.1158 65.0989 44.5488 66.3017 46.4326C66.4625 46.685 66.7306 47.2144 66.7026 47.4967Z" fill="#333232"/>
<path d="M60.1226 43.0077C60.358 43.7754 60.0977 44.8466 59.2485 44.952C58.3332 45.0661 57.8126 44.1222 57.8522 43.2956C57.8848 42.6223 58.1723 42.1323 58.7442 42.0175C59.3813 41.8901 59.8903 42.2472 60.1226 43.0077Z" fill="#333232"/>
<path d="M68.5533 43.9641C68.22 44.1536 67.6442 43.9806 67.4492 43.7635C66.8773 43.1288 66.9294 42.0072 67.3622 41.518C67.5385 41.3182 68.0304 41.0948 68.3148 41.1979C68.8657 41.3976 69.1594 42.0111 69.2091 42.4421C69.2712 42.9856 69.1368 43.6337 68.5541 43.9649L68.5533 43.9641Z" fill="#333232"/>
<path d="M60.2299 6.48885C61.16 9.37383 44.5321 12.6261 39.8173 11.4621C39.5026 11.3842 39.0877 10.9894 38.9867 10.7424C38.4731 9.48394 41.6658 8.29629 42.6168 7.98718C46.9696 6.57537 51.4241 5.66693 56.0123 5.42075C57.0722 5.36412 59.8694 5.36963 60.2299 6.48885ZM59.3705 6.82706C58.9937 6.64616 58.6976 6.53211 58.369 6.51166C54.4832 6.27492 50.7684 6.78695 47.0248 7.73314C45.6806 8.07291 40.5182 9.36282 39.9284 10.5332C44.6262 11.311 55.3635 9.44776 59.3698 6.82706H59.3705Z" fill="#333232"/>
</g>
</g>
<defs>
<clipPath id="clip0_470_6337">
<rect width="110" height="94" fill="white"/>
</clipPath>
<clipPath id="clip1_470_6337">
<rect width="69" height="94" fill="white" transform="translate(17 3)"/>
</clipPath>
</defs>
</svg>
