<svg width="110" height="94" viewBox="0 0 110 94" fill="none" xmlns="http://www.w3.org/2000/svg">
<g clip-path="url(#clip0_470_6339)">
<path d="M47.2242 54.3107C46.2989 53.8622 45.0542 58.657 44.633 59.6395C46.3091 61.3409 47.7428 62.9762 49.5637 64.4369L54.1554 68.1203C54.2707 68.2127 54.6461 68.333 54.7698 68.2788C54.8935 68.2245 55.0511 68.0372 55.1434 67.8761L57.8143 63.2212C58.0871 62.7456 58.7023 62.5668 59.1302 62.8024C59.4589 62.983 59.814 63.7409 59.5835 64.1613L56.4585 69.864C56.0408 70.6262 55.0646 71.1907 54.1859 70.6083C50.2882 68.0279 46.8141 65.0345 43.5171 61.53C38.711 65.6601 35.4581 69.1392 33.5465 75.2692L34.62 78.2371L36.1181 82.1808C37.1629 81.7501 38.2246 81.9273 39.2321 81.8264C40.1532 81.734 40.9971 81.1041 42.1656 81.5611C42.8282 81.8205 43.4629 82.5148 44.0848 83.3981L43.6756 79.5986C43.6391 79.2612 44.0492 78.7288 44.3339 78.6304C44.7263 78.4948 45.2525 78.867 45.3575 79.3425C45.7753 81.2254 46.1303 83.042 46.3218 84.9647L46.9141 90.9268C46.9624 91.4117 46.3438 91.9348 45.9939 91.911C45.5253 91.8788 45.0906 91.5117 45.0228 90.9904L44.5297 87.1722C43.967 87.7046 43.6179 88.0047 43.107 88.3599L42.7757 88.5896C42.4715 88.8007 43.7976 89.4535 43.6535 91.0777C43.6078 91.5974 43.2146 91.9144 42.7884 91.8636C41.4394 91.6999 42.5766 90.5275 41.4496 89.8103L38.0001 91.2074C37.7272 91.3176 37.2349 91.2515 37.0756 91.0735C36.8892 90.8658 36.8748 90.1316 37.1316 89.996C38.4983 89.2746 39.7583 88.7566 41.1564 88.2853C41.1937 87.9029 41.1268 87.2807 40.9751 86.9925C40.4658 86.0261 37.2248 87.6707 36.3766 88.0759C36.0419 88.2353 35.2454 88.0369 35.3081 87.5579C35.3606 87.1527 35.9139 86.4906 36.3393 86.3262L39.7041 85.0249C40.1303 84.5629 39.399 83.6321 38.7881 83.5363C37.5468 83.3421 36.585 83.7889 35.4894 84.2424C33.7303 84.9715 32.3898 86.4525 32.2492 88.4904C32.0662 91.1464 33.6032 92.3773 33.0872 93.7701C33.0152 93.9659 32.4017 94.0897 32.2517 93.9108C31.4552 92.9656 31.0138 91.6143 30.7562 90.4656C30.5079 91.0413 30.13 91.5033 29.7173 91.4965C29.0183 91.4838 28.6726 90.9845 28.7285 90.2664C29.1301 85.1665 29.9885 80.2004 31.19 75.2904L27.6727 65.7932C24.452 67.0292 21.3168 65.8305 19.762 62.8897C18.6731 60.8298 18.1495 58.5621 17.6097 56.2901C17.2106 56.4368 16.8573 56.5106 16.6005 56.4716C16.187 56.4088 15.9294 55.8188 16.0201 55.3898L16.8039 51.6997C16.8556 51.4547 17.3292 51.1444 17.5563 51.1334C18.446 51.0927 18.9316 53.3731 19.1383 54.2242C19.7154 56.5996 20.2865 58.8927 21.1821 61.1663C22.143 63.6044 24.352 64.8421 26.9559 63.8536L25.1078 58.7477L23.5657 54.4039C23.181 54.5955 22.8683 54.7379 22.6056 54.7524C22.3252 54.7676 21.9735 54.1954 22.0032 53.9038L22.3455 50.4671C22.3684 50.2416 22.5641 49.8609 22.7302 49.7499C22.9242 49.6193 23.5385 49.6202 23.7139 49.7821L26.2 52.0718C26.4093 52.2643 26.6008 52.8043 26.4754 53.0086C26.3373 53.2341 25.9221 53.4087 25.3917 53.5621L28.8963 62.9779C30.4935 62.7219 32.1373 60.7077 31.8247 58.7816C31.5603 57.1514 30.9646 55.6357 30.219 54.1462L27.3287 48.3689C27.2194 48.1502 27.3321 47.5661 27.4609 47.3695C27.6083 47.1448 28.2658 47.0032 28.4836 47.1609L31.479 49.3404C31.7315 49.5235 32.0518 50.0627 31.9602 50.3213C31.8365 50.6731 31.3807 50.9647 30.9367 51.1486C32.8 54.6379 35.6352 59.4429 32.6296 62.9635C31.8594 63.8655 30.8867 64.4818 29.7411 65.1303L32.3771 72.1283C34.5421 67.1869 38.2865 62.9635 42.3291 59.9295C42.4461 59.5124 42.5545 58.9893 42.6994 58.6011L44.2153 54.5438C44.7508 53.1111 45.7846 52.2982 47.4335 52.0455C47.3217 51.0469 46.942 49.315 45.8151 48.914C44.5102 48.5834 43.068 48.7835 41.7199 48.2189C39.4965 47.2881 37.5798 45.3874 37.0502 42.9638C36.8655 42.1186 36.5299 41.8422 36.0554 41.1505C33.3778 37.2467 31.5281 32.7579 30.7943 28.0361C30.008 22.9776 32.1111 15.9177 36.7282 13.1736C35.8343 9.86066 36.2554 5.52705 38.3136 2.75751C38.461 2.55914 38.8567 2.34975 39.0559 2.31839C39.2872 2.28193 39.8015 2.54727 39.8481 2.77786C40.1845 4.45043 40.7336 5.81104 41.5004 7.43106C43.6188 5.74746 45.9481 5.02435 48.4249 4.34192C54.0834 2.78294 58.9378 2.9101 64.5345 4.58098C66.3681 5.12862 67.951 5.97042 69.6482 7.01482C70.3523 6.52144 70.7557 5.76442 71.1022 4.99383C72.6266 1.60375 71.5835 0.54408 72.5147 0.0659591C72.8011 -0.0806986 73.4994 0.00407463 73.7214 0.315193C76.1761 3.74681 77.2531 8.6679 75.5389 12.7226C77.4005 15.8635 78.3182 19.429 78.0258 23.1023C77.8267 25.6039 77.3556 28.025 76.1566 30.2334C75.827 30.8404 75.6541 31.2354 75.7965 31.9695C76.5413 35.8267 76.7023 39.7305 75.7346 43.5428C74.1789 49.6727 68.7127 51.7633 63.0203 52.6551C62.8297 52.9772 62.7941 53.5918 62.8941 53.9936C64.5243 55.0618 66.058 56.3062 66.9011 58.1026L67.457 59.2869C70.8387 61.4884 73.8222 64.2241 75.9787 67.6549C77.6649 70.3379 78.4902 73.16 79.5934 76.3085L82.6913 61.0044C81.7948 60.6026 80.8788 60.2423 80.0916 59.6997C76.6803 57.3507 77.3005 53.4867 78.5097 50.0432L79.4553 47.35L78.4385 47.0134C78.2063 46.9363 78.1716 46.0894 78.3631 45.9012L81.1296 43.1961C81.3313 42.9994 81.9549 42.9629 82.1761 43.0799C82.3973 43.1969 82.6532 43.7886 82.5693 44.0514L80.3501 51.0122C79.9078 52.4007 79.529 53.9182 79.6815 55.3839C79.8705 57.1998 81.4686 58.4298 83.1107 58.8003L85.1155 49.0497C84.6351 48.8886 84.2589 48.7741 84.108 48.5868C83.9352 48.3732 84.0352 47.6551 84.2233 47.4322L86.3179 44.956C86.4619 44.7856 86.9339 44.6618 87.1195 44.7262C87.305 44.7906 87.6821 45.0924 87.7372 45.312L88.5769 48.6309C88.6362 48.864 88.4201 49.4328 88.2202 49.5363C88.0202 49.6397 87.6397 49.5481 87.1644 49.4244L86.0222 54.9787L85.1994 59.2063C86.8856 59.7107 88.8819 58.9995 89.7479 57.3752C90.6588 55.6688 90.8698 53.8326 91.0867 51.9455L91.7688 46.019C91.8078 45.6791 92.1671 45.2382 92.4306 45.2009C92.7246 45.1594 93.2669 45.4298 93.3754 45.713L94.6388 49.02C94.7515 49.3158 94.7404 49.9839 94.4981 50.1517C94.1998 50.3586 93.7499 50.334 93.2178 50.2263L92.9636 53.1679C92.8356 54.6455 92.5704 56.0757 92.0349 57.399C90.8257 60.3881 87.9855 61.9674 84.7842 61.3248L81.294 78.9136C81.2635 79.0662 81.3796 79.5358 81.4364 79.6681C82.8396 80.1157 84.0674 80.9456 84.813 82.2121C86.3908 84.8926 86.2408 88.0903 84.6452 90.742C84.4453 91.0752 83.9826 91.2956 83.7166 91.1998C83.2387 91.0277 83.0667 90.5046 83.2937 90.0537C84.28 88.0945 84.6469 85.8175 83.775 83.7423C82.3269 80.2937 77.0726 80.1928 76.2812 81.2228C76.0151 81.5687 75.8575 82.1646 76.0431 82.5402C77.1429 82.9166 81.2381 82.8903 80.9924 84.4501C80.7865 85.7556 78.5614 84.156 75.6702 84.284C75.0585 84.3111 75.0381 85.7616 75.4669 85.9048C76.1464 86.2134 80.4374 86.5313 79.9476 87.7953C79.8197 88.1242 79.3638 88.3336 78.9376 88.2514L75.4262 87.5791C75.2347 87.5427 74.9042 88.0242 74.9068 88.2107C74.9263 89.6484 78.3156 89.7035 79.057 90.4504C79.1926 90.5869 79.0833 91.1998 78.8884 91.2456C77.6835 91.5295 74.245 90.7937 73.6697 89.5484C72.8079 87.6825 74.1696 86.7322 73.8044 86.5356C73.3129 86.2711 71.0895 86.004 71.2971 83.6668C71.4183 82.3028 71.8886 81.1287 72.5224 79.897L72.2385 76.4458C72.2055 76.0389 72.7698 75.5455 73.1045 75.5557C73.4205 75.565 73.9764 76.011 74.0366 76.3653L74.4873 79.0408C74.9042 79.1789 75.6499 79.4112 76.0219 79.3544L78.1555 79.0297C76.9785 75.142 75.6414 70.2786 73.013 67.1004C71.5598 65.3439 70.0176 63.7977 68.1035 62.4031L68.6738 66.9199C68.7365 67.4183 68.3323 68.0558 67.9586 68.1915C67.5485 68.3398 66.8198 68.211 66.4969 67.8447L62.5246 63.339C62.2162 62.9889 62.1679 62.3684 62.3441 62.0446C62.5204 61.7207 63.3542 61.413 63.6507 61.7063L66.1055 64.1351C65.4869 60.1982 65.7377 59.0122 62.7076 56.4682C62.7729 58.5841 62.5483 60.2177 61.7569 61.9784L62.678 66.5503L63.7516 72.9362L64.7311 80.6345L65.7733 89.4314C65.8453 90.0384 65.4657 90.5521 64.97 90.6293C64.5981 90.6869 63.9083 90.3258 63.8431 89.8019L62.889 82.1375L61.3036 70.1396L59.8284 62.6744C57.2923 61.2528 54.8062 60.0973 52.1998 58.93C51.1948 58.4798 47.1785 56.48 47.0141 55.5492C46.97 55.3008 47.1039 54.8939 47.2242 54.3031V54.3107ZM74.328 11.0865C74.7068 9.7547 74.7093 8.76539 74.7407 7.60739C74.4662 6.07215 74.2315 4.52588 73.4282 3.13051C72.9926 5.10827 72.3487 6.70964 71.026 8.09568C72.3478 9.05871 73.2367 9.97002 74.3289 11.0856L74.328 11.0865ZM41.7157 17.5996C44.0187 17.7412 45.6312 15.5939 45.7176 13.5975C42.4003 11.9071 40.054 9.14942 38.7169 5.53045C37.3154 8.96715 37.9687 15.777 41.7157 17.5996ZM48.8155 49.2421C49.8188 51.0851 49.7722 53.012 49.3892 55.0821C52.0634 56.6301 54.8655 57.6516 57.5397 59.0546L60.1521 60.4254C60.8587 57.0565 60.0758 55.3975 60.9248 51.8022C61.1036 51.0452 61.7332 50.6468 62.4119 50.551C64.1464 50.3052 65.6708 49.9025 67.3629 49.3862C70.0778 48.5563 72.5114 46.6014 73.4036 43.7996C74.2416 41.1691 74.4297 38.3962 74.1162 35.6894L73.5714 30.9794C73.1613 27.4325 72.3351 24.0441 71.1488 20.5955C69.3965 21.3644 67.7781 22.0494 65.9563 22.3995C60.4774 23.4524 54.6562 23.8754 49.1138 22.5139C49.2612 25.754 48.1207 28.6557 46.0845 31.0006L46.9861 38.1232C47.1174 39.16 47.1471 40.8851 45.8083 41.014C45.4711 41.0462 44.8923 40.797 44.7042 40.546L43.8188 39.3601C43.229 38.57 42.4571 37.6502 41.3149 37.6773C39.9396 37.7087 38.9949 39.06 38.8737 40.4494C38.6602 42.9044 40.2108 45.2849 42.4647 46.2581C44.5992 47.1796 46.5862 45.1501 48.8147 49.2438L48.8155 49.2421ZM34.0854 82.9505L32.5475 79.0077C31.9467 81.2686 31.6518 83.2777 31.4052 85.453C32.2814 84.4747 33.0448 83.6999 34.0845 82.9505H34.0854ZM73.5239 84.618L74.3111 83.1116C74.3077 82.296 74.3636 81.6602 74.5102 80.6955C74.2298 80.754 73.6442 81.1016 73.4934 81.45C72.1199 84.6265 73.4053 84.8452 73.5239 84.618ZM43.1366 85.5734L42.2664 83.5473C42.0851 83.1251 41.2835 82.7716 41.0124 82.9217L41.4699 85.1614L42.6477 86.6508C42.9977 86.7924 43.3324 86.0286 43.1366 85.5725V85.5734Z" fill="#333232"/>
<path d="M68.0264 45.8011L66.9994 44.4083C65.5496 44.7567 64.3168 44.8076 62.8602 44.5651L61.79 46.2284C61.6798 46.4005 61.2909 46.631 61.096 46.6149C60.9011 46.5988 60.4707 46.3208 60.3961 46.1283L59.3149 43.3435C59.2565 43.1935 58.9006 42.9027 58.9777 42.7662C59.0548 42.6297 59.4759 42.4729 59.6428 42.5204L62.1467 43.2342C64.3642 43.8657 66.7452 43.6216 68.8017 42.6738C69.0398 42.5645 69.7363 42.6636 69.7202 42.9044C69.6686 43.6826 69.3915 45.8028 68.6653 46.0707C68.5153 46.1258 68.1366 45.9495 68.0273 45.8011H68.0264ZM68.739 43.9217C68.5136 43.7835 67.8917 43.9954 67.9578 44.2286C68.0078 44.4049 68.2349 44.7109 68.4247 44.8864L68.739 43.9217ZM61.829 44.2837L60.5969 44.0065C60.791 44.6126 60.8664 44.7999 61.1392 45.3425L61.829 44.2837Z" fill="#333232"/>
<path d="M68.0053 38.8695C67.0012 40.4124 65.8649 40.2971 65.892 39.8741C65.9014 39.7317 65.9632 39.3578 66.0581 39.2561L67.0241 38.2185C67.4588 37.7514 65.4031 36.3145 65.4082 33.9222C65.4082 33.756 65.6921 33.4169 65.8412 33.4C66.3674 33.3406 66.4411 35.0318 67.8477 36.868C68.3087 37.4699 68.4586 38.1727 68.0053 38.8687V38.8695Z" fill="#333232"/>
<path d="M61.3319 31.5156C59.8541 31.0765 58.4713 30.5407 57.0799 29.9956C56.819 29.8939 56.5326 29.3183 56.6215 29.0877C56.7105 28.8571 57.2596 28.5892 57.5409 28.6714C58.9585 29.0885 60.4642 29.6438 61.7471 30.2033C61.9691 30.2999 62.1225 30.7085 62.1462 30.8866C62.1741 31.0934 61.5463 31.5792 61.3319 31.5156Z" fill="#333232"/>
<path d="M60.914 34.5564C60.736 35.2897 60.2793 35.6364 59.715 35.6339C59.0947 35.6305 58.7812 35.2075 58.5601 34.5717C58.2542 33.6892 58.5151 32.2998 59.6311 32.293C60.6886 32.2871 61.147 33.5976 60.914 34.5564Z" fill="#333232"/>
<path d="M70.8598 31.5931C71.7707 32.8257 71.2522 34.439 70.3582 34.5695C70.0278 34.6179 69.4389 34.422 69.2313 34.1423C68.4212 33.0479 68.8542 31.6474 69.621 31.3685C69.9549 31.2473 70.676 31.3439 70.8598 31.5931Z" fill="#333232"/>
<path d="M71.1602 28.4351C70.2713 29.2074 68.136 31.3547 67.4005 30.4595C67.2497 30.2764 67.2972 29.7084 67.4853 29.5558L70.1205 27.4161C70.3383 27.239 70.9145 27.2729 71.1238 27.3924C71.372 27.5348 71.3974 28.2291 71.1593 28.4351H71.1602Z" fill="#333232"/>
<path d="M68.7392 43.9219L68.4248 44.8866Z" fill="white"/>
</g>
<defs>
<clipPath id="clip0_470_6339">
<rect width="78.7051" height="94" fill="white" transform="translate(16)"/>
</clipPath>
</defs>
</svg>
